<?xml version="1.0" encoding="UTF-8"?>
<svg width="60px" height="60px" viewBox="0 0 60 60" version="1.1" xmlns="http://www.w3.org/2000/svg" xmlns:xlink="http://www.w3.org/1999/xlink">
    <!-- Generator: Sketch 50.2 (55047) - http://www.bohemiancoding.com/sketch -->
    <title>so-icon</title>
    <desc>Created with Sketch.</desc>
    <defs></defs>
    <g id="Home" stroke="none" stroke-width="1" fill="none" fill-rule="evenodd">
        <g id="Home-Final" transform="translate(-782.000000, -3287.000000)" fill="#FFFFFF">
            <g id="Contact" transform="translate(-204.000000, 2587.000000)">
                <g id="Content" transform="translate(823.000000, 517.000000)">
                    <g id="Social" transform="translate(11.000000, 183.000000)">
                        <g id="so-icon" transform="translate(152.000000, 0.000000)">
                            <path d="M29.9625462,0 C46.5093634,0 59.9250924,13.4120329 59.9250924,29.9625462 C59.9250924,46.5093634 46.5093634,59.9250924 29.9625462,59.9250924 C13.415729,59.9250924 0,46.5093634 0,29.9625462 C0,13.415729 13.415729,0 29.9625462,0 Z M40.2169892,44.0911675 L19.0173271,44.0911675 L19.0173271,35 L16,35 L16,47.1084946 L43.2343164,47.1084946 L43.2343164,35 L40.2169892,35 L40.2169892,44.0911675 Z M22,33.9781411 L36.8123332,37.0738403 L37.4393103,34.0956993 L22.6269771,31 L22,33.9781411 Z M23,26.7822107 L36.7151234,33.1695396 L37.9690775,30.4265149 L24.2539541,24 L23,26.7822107 Z M28,20.3119779 L39.6382618,29.9909364 L41.5583791,27.6789585 L29.9201173,18 L28,20.3119779 Z M35.4295361,13 L33,14.8025591 L42.0127953,26.9502398 L44.4423315,25.1476807 L35.4295361,13 Z M22,41.0173271 L37.1258218,41.0173271 L37.1258218,38 L22,38 L22,41.0173271 Z" id="Combined-Shape"></path>
                        </g>
                    </g>
                </g>
            </g>
        </g>
    </g>
</svg>